<svg data-logo="logo" xmlns="http://www.w3.org/2000/svg" viewBox="0 0 202 42">
        <g style="opacity: 1;" id="logogram" transform="translate(0, 1) rotate(0)"><path d="M24 0H16V12.0632C15.9663 14.2434 14.1885 16 12.0005 16H0V24H8.68629C10.808 24 12.8429 23.1571 14.3431 21.6569L21.6569 14.3431C23.1571 12.8429 24 10.808 24 8.68629V0Z" fill="url(#paint0_linear_7697_8782)"></path><path d="M16 40H24V27.9368C24.0337 25.7566 25.8115 24 27.9995 24H40V16H31.3137C29.192 16 27.1571 16.8429 25.6569 18.3431L18.3431 25.6569C16.8429 27.1571 16 29.192 16 31.3137V40Z" fill="url(#paint1_linear_7697_8782)"></path></g>
        <g style="opacity: 1;" id="logotype" transform="translate(46, 8)"><path fill="#DAC5A7" d="M12.60 26L6.84 26L15.54 0.54L22.37 0.54L31.29 26L25.50 26L21.42 13.71Q20.68 11.34 19.92 8.51Q19.16 5.68 18.32 2.33L18.32 2.33L19.45 2.33Q18.65 5.70 17.94 8.54Q17.23 11.39 16.53 13.71L16.53 13.71L12.60 26ZM25.86 20.09L12.27 20.09L12.27 16.00L25.86 16.00L25.86 20.09ZM38.62 26.24L38.62 26.24Q36.64 26.24 35.15 25.38Q33.67 24.51 32.85 22.90Q32.04 21.28 32.04 19.04L32.04 19.04L32.04 6.89L37.17 6.89L37.17 18.16Q37.17 19.93 38.09 20.94Q39.02 21.95 40.62 21.95L40.62 21.95Q41.72 21.95 42.55 21.48Q43.39 21.01 43.86 20.11Q44.33 19.22 44.33 17.95L44.33 17.95L44.33 6.89L49.46 6.89L49.46 26L44.62 26L44.55 21.23L44.84 21.23Q44.09 23.64 42.54 24.94Q41.00 26.24 38.62 26.24ZM56.68 26L51.56 26L51.56 6.89L56.51 6.89L56.51 10.23L56.72 10.23Q57.25 8.45 58.49 7.54Q59.73 6.64 61.33 6.64L61.33 6.64Q61.73 6.64 62.18 6.68Q62.63 6.72 62.99 6.81L62.99 6.81L62.99 11.39Q62.65 11.27 62.00 11.20Q61.35 11.13 60.77 11.13L60.77 11.13Q59.61 11.13 58.67 11.64Q57.73 12.14 57.21 13.04Q56.68 13.93 56.68 15.13L56.68 15.13L56.68 26ZM72.08 26.38L72.08 26.38Q69.21 26.38 67.11 25.14Q65.01 23.90 63.87 21.68Q62.73 19.47 62.73 16.53L62.73 16.53Q62.73 13.56 63.87 11.35Q65.01 9.13 67.11 7.89Q69.21 6.65 72.08 6.65L72.08 6.65Q74.97 6.65 77.06 7.89Q79.16 9.13 80.29 11.35Q81.43 13.56 81.43 16.53L81.43 16.53Q81.43 19.47 80.29 21.68Q79.16 23.90 77.06 25.14Q74.97 26.38 72.08 26.38ZM72.08 22.34L72.08 22.34Q73.45 22.34 74.37 21.58Q75.29 20.82 75.75 19.50Q76.22 18.17 76.22 16.52L76.22 16.52Q76.22 14.82 75.75 13.51Q75.29 12.19 74.37 11.44Q73.45 10.69 72.08 10.69L72.08 10.69Q70.71 10.69 69.80 11.44Q68.88 12.19 68.42 13.51Q67.96 14.82 67.96 16.52L67.96 16.52Q67.96 18.17 68.42 19.50Q68.88 20.82 69.80 21.58Q70.71 22.34 72.08 22.34ZM93.42 26.32L93.42 26.32Q91.87 26.32 90.79 25.79Q89.71 25.27 89.04 24.49Q88.36 23.71 88.01 22.94L88.01 22.94L87.77 22.94L87.77 26L82.73 26L82.73 0.54L87.85 0.54L87.85 10.11L88.01 10.11Q88.36 9.35 89.02 8.55Q89.68 7.75 90.76 7.20Q91.83 6.65 93.46 6.65L93.46 6.65Q95.58 6.65 97.34 7.75Q99.10 8.84 100.15 11.03Q101.20 13.22 101.20 16.48L101.20 16.48Q101.20 19.66 100.17 21.86Q99.15 24.05 97.39 25.19Q95.63 26.32 93.42 26.32ZM91.85 22.21L91.85 22.21Q93.18 22.21 94.10 21.47Q95.01 20.74 95.48 19.44Q95.95 18.14 95.95 16.46L95.95 16.46Q95.95 14.79 95.48 13.51Q95.01 12.23 94.11 11.49Q93.20 10.76 91.85 10.76L91.85 10.76Q90.54 10.76 89.61 11.47Q88.69 12.17 88.21 13.45Q87.73 14.72 87.73 16.46L87.73 16.46Q87.73 18.19 88.22 19.48Q88.71 20.77 89.63 21.49Q90.55 22.21 91.85 22.21ZM107.85 26.38L107.85 26.38Q106.03 26.38 104.59 25.74Q103.15 25.09 102.32 23.82Q101.49 22.55 101.49 20.65L101.49 20.65Q101.49 19.06 102.08 17.98Q102.67 16.91 103.68 16.26Q104.70 15.61 105.99 15.27Q107.28 14.93 108.70 14.79L108.70 14.79Q110.36 14.62 111.37 14.47Q112.39 14.33 112.86 14.01Q113.33 13.70 113.33 13.08L113.33 13.08L113.33 12.99Q113.33 12.17 112.99 11.61Q112.65 11.05 111.98 10.75Q111.31 10.45 110.34 10.45L110.34 10.45Q109.35 10.45 108.61 10.75Q107.88 11.05 107.42 11.54Q106.96 12.04 106.73 12.65L106.73 12.65L102.03 11.87Q102.53 10.21 103.68 9.05Q104.82 7.88 106.52 7.27Q108.22 6.65 110.34 6.65L110.34 6.65Q111.90 6.65 113.35 7.02Q114.80 7.39 115.95 8.16Q117.11 8.93 117.78 10.16Q118.46 11.39 118.46 13.13L118.46 13.13L118.46 26L113.60 26L113.60 23.35L113.43 23.35Q112.97 24.24 112.20 24.91Q111.43 25.59 110.35 25.98Q109.26 26.38 107.85 26.38ZM109.30 22.77L109.30 22.77Q110.51 22.77 111.43 22.29Q112.34 21.81 112.85 20.99Q113.37 20.17 113.37 19.16L113.37 19.16L113.37 17.10Q113.14 17.27 112.68 17.40Q112.22 17.54 111.66 17.64Q111.09 17.75 110.55 17.83Q110.00 17.92 109.57 17.97L109.57 17.97Q108.63 18.10 107.91 18.41Q107.20 18.72 106.80 19.22Q106.41 19.73 106.41 20.51L106.41 20.51Q106.41 21.25 106.79 21.75Q107.16 22.26 107.80 22.51Q108.44 22.77 109.30 22.77ZM128.15 26.38L128.15 26.38Q125.84 26.38 124.06 25.72Q122.28 25.06 121.16 23.80Q120.03 22.55 119.70 20.77L119.70 20.77L124.47 19.95Q124.85 21.28 125.79 21.95Q126.73 22.62 128.30 22.62L128.30 22.62Q129.75 22.62 130.61 22.06Q131.46 21.51 131.46 20.65L131.46 20.65Q131.46 19.90 130.85 19.42Q130.25 18.94 129.00 18.69L129.00 18.69L125.70 18.00Q122.93 17.44 121.57 16.08Q120.20 14.72 120.20 12.58L120.20 12.58Q120.20 10.74 121.21 9.41Q122.22 8.09 124.01 7.37Q125.80 6.65 128.23 6.65L128.23 6.65Q130.49 6.65 132.14 7.28Q133.80 7.90 134.83 9.05Q135.85 10.19 136.20 11.75L136.20 11.75L131.65 12.55Q131.36 11.58 130.53 10.95Q129.70 10.33 128.30 10.33L128.30 10.33Q127.04 10.33 126.18 10.86Q125.33 11.39 125.33 12.26L125.33 12.26Q125.33 12.99 125.88 13.49Q126.44 13.99 127.79 14.26L127.79 14.26L131.22 14.94Q133.99 15.51 135.34 16.78Q136.69 18.05 136.69 20.10L136.69 20.10Q136.69 21.98 135.60 23.39Q134.50 24.80 132.58 25.59Q130.66 26.38 128.15 26.38ZM146.52 26.38L146.52 26.38Q143.59 26.38 141.47 25.18Q139.35 23.98 138.22 21.78Q137.08 19.57 137.08 16.55L137.08 16.55Q137.08 13.59 138.21 11.37Q139.34 9.15 141.41 7.90Q143.47 6.65 146.26 6.65L146.26 6.65Q148.14 6.65 149.76 7.25Q151.39 7.85 152.62 9.06Q153.85 10.26 154.54 12.07Q155.23 13.88 155.23 16.34L155.23 16.34L155.23 17.78L139.18 17.78L139.18 14.57L152.72 14.57L150.33 15.42Q150.33 13.93 149.87 12.83Q149.42 11.73 148.52 11.12Q147.63 10.52 146.29 10.52L146.29 10.52Q144.98 10.52 144.05 11.13Q143.11 11.75 142.64 12.80Q142.16 13.85 142.16 15.20L142.16 15.20L142.16 17.47Q142.16 19.13 142.71 20.26Q143.27 21.39 144.27 21.95Q145.27 22.51 146.60 22.51L146.60 22.51Q147.51 22.51 148.24 22.26Q148.98 22.00 149.50 21.50Q150.02 20.99 150.29 20.26L150.29 20.26L154.94 21.13Q154.48 22.70 153.33 23.89Q152.19 25.08 150.47 25.73Q148.75 26.38 146.52 26.38Z"></path></g>
        <defs xmlns="http://www.w3.org/2000/svg">
<linearGradient id="paint0_linear_7697_8782" x1="20" y1="-0.997096" x2="20" y2="33.7931" gradientUnits="userSpaceOnUse">
<stop stop-color="#DAC5A7"></stop>
<stop offset="1" stop-color="#0072E5"></stop>
</linearGradient>
<linearGradient id="paint1_linear_7697_8782" x1="20" y1="-0.997096" x2="20" y2="33.7931" gradientUnits="userSpaceOnUse">
<stop stop-color="#75D8FC"></stop>
<stop offset="1" stop-color="#DAC5A7"></stop>
</linearGradient>
</defs>
      </svg>