<svg viewBox="0 0 41 41" xmlns="http://www.w3.org/2000/svg" data-logo="logo">
        <g transform="translate(0, 0) rotate(0)" id="logogram" style="opacity: 1;"><path fill="#DAC5A7" d="M14.0598 0.799957C11.8035 0.799957 9.63951 1.69629 8.04403 3.29178L0.345215 10.9906V14.5146C0.345215 17.0042 1.41466 19.2442 3.11922 20.8C1.41466 22.3558 0.345215 24.5957 0.345215 27.0854V30.6093L8.04403 38.3081C9.63951 39.9036 11.8035 40.8 14.0598 40.8C16.5495 40.8 18.7894 39.7305 20.3452 38.026C21.901 39.7305 24.1409 40.8 26.6306 40.8C28.887 40.8 31.0509 39.9036 32.6464 38.3081L40.3452 30.6093V27.0854C40.3452 24.5957 39.2758 22.3558 37.5712 20.8C39.2758 19.2442 40.3452 17.0042 40.3452 14.5146V10.9906L32.6464 3.29178C31.0509 1.69629 28.887 0.799957 26.6306 0.799957C24.1409 0.799957 21.901 1.8694 20.3452 3.57396C18.7894 1.8694 16.5495 0.799957 14.0598 0.799957ZM26.1041 20.8C26.0081 20.7125 25.914 20.6226 25.8218 20.5304L20.3452 15.0538L14.8686 20.5304C14.7764 20.6226 14.6823 20.7125 14.5864 20.8C14.6823 20.8875 14.7764 20.9773 14.8686 21.0696L20.3452 26.5462L25.8218 21.0696C25.914 20.9773 26.0081 20.8875 26.1041 20.8ZM22.5674 30.6093L22.5674 32.2923C22.5674 34.5364 24.3866 36.3555 26.6306 36.3555C27.7082 36.3555 28.7417 35.9274 29.5037 35.1654L35.9008 28.7684V27.0854C35.9008 24.8413 34.0816 23.0222 31.8376 23.0222C30.76 23.0222 29.7265 23.4503 28.9645 24.2123L22.5674 30.6093ZM18.123 30.6093L11.7259 24.2123C10.9639 23.4503 9.93045 23.0222 8.85283 23.0222C6.6088 23.0222 4.78966 24.8413 4.78966 27.0854V28.7684L11.1867 35.1654C11.9487 35.9274 12.9822 36.3555 14.0598 36.3555C16.3038 36.3555 18.123 34.5364 18.123 32.2923V30.6093ZM18.123 9.30757V10.9906L11.7259 17.3877C10.9639 18.1497 9.93045 18.5777 8.85283 18.5777C6.6088 18.5777 4.78966 16.7586 4.78966 14.5146V12.8315L11.1867 6.43448C11.9487 5.67248 12.9822 5.2444 14.0598 5.2444C16.3038 5.2444 18.123 7.06355 18.123 9.30757ZM28.9645 17.3877L22.5674 10.9906L22.5674 9.30757C22.5674 7.06355 24.3866 5.2444 26.6306 5.2444C27.7082 5.2444 28.7417 5.67248 29.5037 6.43448L35.9008 12.8315V14.5146C35.9008 16.7586 34.0816 18.5777 31.8376 18.5777C30.76 18.5777 29.7265 18.1497 28.9645 17.3877Z" clip-rule="evenodd" fill-rule="evenodd"></path></g>
        <g transform="translate(41, 20.5)" id="logotype" style="opacity: 1;"></g>
        
      </svg>